<?xml version="1.0" standalone="no"?>
<!DOCTYPE svg PUBLIC "-//W3C//DTD SVG 20010904//EN"
 "http://www.w3.org/TR/2001/REC-SVG-20010904/DTD/svg10.dtd">
<svg version="1.0" xmlns="http://www.w3.org/2000/svg"
 width="990.000000pt" height="252.000000pt" viewBox="0 0 990.000000 252.000000"
 preserveAspectRatio="xMidYMid meet">

<g transform="translate(0.000000,252.000000) scale(0.100000,-0.100000)"
fill="#000000" stroke="none">
<path d="M220 1240 l0 -1100 150 0 150 0 0 510 0 510 580 0 580 0 0 -510 0
-510 150 0 150 0 0 1100 0 1100 -150 0 -150 0 0 -450 0 -450 -580 0 -580 0 0
450 0 450 -150 0 -150 0 0 -1100z"/>
<path d="M2180 1240 l0 -1100 710 0 710 0 0 130 0 130 -560 0 -560 0 0 970 0
970 -150 0 -150 0 0 -1100z"/>
<path d="M6279 2237 c-55 -16 -126 -66 -156 -110 -12 -17 -158 -369 -325 -782
l-303 -750 0 -90 c0 -81 3 -95 30 -144 16 -29 48 -68 71 -87 80 -66 59 -64
775 -64 639 0 650 0 694 21 55 26 108 79 137 139 19 37 23 61 22 140 l0 95
-301 745 c-270 669 -305 750 -344 794 -74 83 -197 122 -300 93z m144 -141 c18
-7 41 -24 53 -37 11 -13 74 -156 138 -317 l118 -294 -28 -31 c-193 -215 -349
-328 -567 -408 -145 -54 -366 -96 -354 -67 215 537 442 1089 453 1106 18 28
87 61 127 62 15 0 42 -6 60 -14z"/>
<path d="M4465 1789 c-261 -34 -459 -177 -559 -403 -84 -191 -116 -454 -81
-662 20 -114 38 -171 86 -264 87 -170 237 -280 441 -327 148 -33 435 -17 551
32 99 41 219 163 282 285 29 57 65 158 65 182 0 4 -59 8 -130 8 -115 0 -131
-2 -137 -17 -3 -10 -16 -41 -29 -70 -63 -144 -232 -238 -419 -235 -269 5 -422
166 -437 462 l-3 65 592 3 592 2 -4 33 c-2 17 -7 74 -10 125 -6 115 -37 268
-72 363 -75 203 -236 352 -434 403 -76 19 -210 26 -294 15z m220 -261 c69 -15
114 -39 168 -91 72 -70 125 -193 141 -325 l7 -52 -453 2 -453 3 3 30 c18 176
114 330 245 395 113 55 210 66 342 38z"/>
<path d="M8097 1790 c-122 -21 -267 -129 -348 -260 l-34 -55 -3 138 -3 137
-129 0 -130 0 0 -805 0 -805 134 0 135 0 4 507 c4 542 2 526 55 643 58 127
178 195 365 207 l97 6 0 142 0 143 -31 6 c-36 7 -47 7 -112 -4z"/>
<path d="M9113 1790 c-136 -25 -258 -101 -355 -223 l-38 -49 0 116 0 116 -130
0 -130 0 0 -805 0 -805 134 0 134 0 5 503 c5 518 5 529 48 647 18 51 62 112
115 159 107 94 315 127 442 71 74 -33 110 -76 148 -175 17 -46 19 -91 22 -627
l3 -578 130 0 130 0 -3 613 c-4 667 -4 660 -64 784 -55 113 -169 201 -310 237
-77 20 -214 28 -281 16z"/>
</g>
</svg>
